HIERARCHY
ROOT hip
{
  OFFSET 0 0 0
  CHANNELS 6 Xposition Yposition Zposition Zrotation Yrotation Xrotation
  JOINT abdomen
  {
    OFFSET 0 20.6881 -0.73152
    CHANNELS 3 Zrotation Xrotation Yrotation
    JOINT chest
    {
      OFFSET 0 11.7043 -0.48768
      CHANNELS 3 Zrotation Xrotation Yrotation
      JOINT neck
      {
        OFFSET 0 22.1894 -2.19456
        CHANNELS 3 Zrotation Xrotation Yrotation
        JOINT head
        {
          OFFSET -0.24384 7.07133 1.2192
          CHANNELS 3 Zrotation Xrotation Yrotation
          JOINT leftEye
          {
            OFFSET 4.14528 8.04674 8.04672
            CHANNELS 3 Zrotation Xrotation Yrotation
            End Site
            {
              OFFSET 1 0 0
            }
          }
          JOINT rightEye
          {
            OFFSET -3.6576 8.04674 8.04672
            CHANNELS 3 Zrotation Xrotation Yrotation
            End Site
            {
              OFFSET 1 0 0
            }
          }
        }
      }
      JOINT rCollar
      {
        OFFSET -2.68224 19.2634 -4.8768
        CHANNELS 3 Zrotation Xrotation Yrotation
        JOINT rShldr
        {
          OFFSET -8.77824 -1.95073 1.46304
          CHANNELS 3 Zrotation Xrotation Yrotation
          JOINT rForeArm
          {
            OFFSET -28.1742 -1.7115 0.48768
            CHANNELS 3 Zrotation Xrotation Yrotation
            JOINT rHand
            {
              OFFSET -22.5879 0.773209 7.07136
              CHANNELS 3 Zrotation Xrotation Yrotation
              JOINT rThumb1
              {
                OFFSET -1.2192 -0.487915 3.41376
                CHANNELS 3 Zrotation Xrotation Yrotation
                JOINT rThumb2
                {
                  OFFSET -3.37035 -0.52449 3.41376
                  CHANNELS 3 Zrotation Xrotation Yrotation
                  End Site
                  {
                    OFFSET -1.78271 -1.18214 1.43049
                  }
                }
              }
              JOINT rIndex1
              {
                OFFSET -7.75947 0.938293 5.60832
                CHANNELS 3 Zrotation Xrotation Yrotation
                JOINT rIndex2
                {
                  OFFSET -2.54057 -0.884171 1.56538
                  CHANNELS 3 Zrotation Xrotation Yrotation
                  End Site
                  {
                    OFFSET -1.62519 -0.234802 1.16502
                  }
                }
              }
              JOINT rMid1
              {
                OFFSET -8.24714 1.18213 3.41376
                CHANNELS 3 Zrotation Xrotation Yrotation
                JOINT rMid2
                {
                  OFFSET -3.10165 -0.590103 1.0647
                  CHANNELS 3 Zrotation Xrotation Yrotation
                  End Site
                  {
                    OFFSET -2.48547 -0.328903 0.83742
                  }
                }
              }
              JOINT rRing1
              {
                OFFSET -8.82822 0.546677 1.51678
                CHANNELS 3 Zrotation Xrotation Yrotation
                JOINT rRing2
                {
                  OFFSET -2.60934 -0.819778 -0.0198488
                  CHANNELS 3 Zrotation Xrotation Yrotation
                  End Site
                  {
                    OFFSET -2.33842 -0.294052 0.168128
                  }
                }
              }
              JOINT rPinky1
              {
                OFFSET -8.27202 -0.0477905 -0.4584
                CHANNELS 3 Zrotation Xrotation Yrotation
                JOINT rPinky2
                {
                  OFFSET -1.82734 -0.647385 -0.700984
                  CHANNELS 3 Zrotation Xrotation Yrotation
                  End Site
                  {
                    OFFSET -1.69225 -0.51767 -0.607171
                  }
                }
              }
            }
          }
        }
      }
      JOINT lCollar
      {
        OFFSET 2.68224 19.2634 -4.8768
        CHANNELS 3 Zrotation Xrotation Yrotation
        JOINT lShldr
        {
          OFFSET 8.77824 -1.95073 1.46304
          CHANNELS 3 Zrotation Xrotation Yrotation
          JOINT lForeArm
          {
            OFFSET 28.1742 -1.7115 0.48768
            CHANNELS 3 Zrotation Xrotation Yrotation
            JOINT lHand
            {
              OFFSET 22.5879 0.773209 7.07136
              CHANNELS 3 Zrotation Xrotation Yrotation
              JOINT lThumb1
              {
                OFFSET 1.2192 -0.487915 3.41376
                CHANNELS 3 Zrotation Xrotation Yrotation
                JOINT lThumb2
                {
                  OFFSET 3.37035 -0.52449 3.41376
                  CHANNELS 3 Zrotation Xrotation Yrotation
                  End Site
                  {
                    OFFSET 1.78271 -1.18214 1.43049
                  }
                }
              }
              JOINT lIndex1
              {
                OFFSET 7.75947 0.938293 5.60832
                CHANNELS 3 Zrotation Xrotation Yrotation
                JOINT lIndex2
                {
                  OFFSET 2.54057 -0.884171 1.56538
                  CHANNELS 3 Zrotation Xrotation Yrotation
                  End Site
                  {
                    OFFSET 1.62519 -0.234802 1.16502
                  }
                }
              }
              JOINT lMid1
              {
                OFFSET 8.24714 1.18213 3.41376
                CHANNELS 3 Zrotation Xrotation Yrotation
                JOINT lMid2
                {
                  OFFSET 3.10165 -0.590103 1.0647
                  CHANNELS 3 Zrotation Xrotation Yrotation
                  End Site
                  {
                    OFFSET 2.48547 -0.328903 0.83742
                  }
                }
              }
              JOINT lRing1
              {
                OFFSET 8.82822 0.546677 1.51678
                CHANNELS 3 Zrotation Xrotation Yrotation
                JOINT lRing2
                {
                  OFFSET 2.60934 -0.819778 -0.0198488
                  CHANNELS 3 Zrotation Xrotation Yrotation
                  End Site
                  {
                    OFFSET 2.33842 -0.294052 0.168128
                  }
                }
              }
              JOINT lPinky1
              {
                OFFSET 8.27202 -0.0477905 -0.4584
                CHANNELS 3 Zrotation Xrotation Yrotation
                JOINT lPinky2
                {
                  OFFSET 1.82734 -0.647385 -0.700984
                  CHANNELS 3 Zrotation Xrotation Yrotation
                  End Site
                  {
                    OFFSET 1.69225 -0.51767 -0.607171
                  }
                }
              }
            }
          }
        }
      }
    }
  }
  JOINT rButtock
  {
    OFFSET -8.77824 4.35084 1.2192
    CHANNELS 3 Zrotation Xrotation Yrotation
    JOINT rThigh
    {
      OFFSET 0 -1.70687 -2.19456
      CHANNELS 3 Zrotation Xrotation Yrotation
      JOINT rShin
      {
        OFFSET 0 -36.8199 0.73152
        CHANNELS 3 Zrotation Xrotation Yrotation
        JOINT rFoot
        {
          OFFSET 0.73152 -45.1104 -5.12064
          CHANNELS 3 Zrotation Xrotation Yrotation
          End Site
          {
            OFFSET -1.1221 -3.69964 12.103
          }
        }
      }
    }
  }
  JOINT lButtock
  {
    OFFSET 8.77824 4.35084 1.2192
    CHANNELS 3 Zrotation Xrotation Yrotation
    JOINT lThigh
    {
      OFFSET 0 -1.70687 -2.19456
      CHANNELS 3 Zrotation Xrotation Yrotation
      JOINT lShin
      {
        OFFSET 0 -36.8199 0.73152
        CHANNELS 3 Zrotation Xrotation Yrotation
        JOINT lFoot
        {
          OFFSET -0.73152 -45.1104 -5.12064
          CHANNELS 3 Zrotation Xrotation Yrotation
          End Site
          {
            OFFSET 1.1221 -3.69964 12.103
          }
        }
      }
    }
  }
}
MOTION
Frames:	4
Frame Time:	0.00833333
-1.6626 82.4855 46.8476 0.0 0.0 0.0 -4.35894 0.00629241 -0.117455 -1.20158 0.0324762 -0.20768 4.23869e-15 -7.95139e-16 1.54058e-15 1.38093e-14 3.18055e-15 4.71958e-15 -0.0 0.0 0.0 -0.0 0.0 0.0 2.13499e-15 -1.2094e-16 9.44227e-16 5.13153e-14 -2.44754e-15 1.70955e-14 8.21329e-13 -3.44494e-13 2.8943e-13 9.63002e-12 -1.55971e-13 3.13285e-12 2.26622e-11 -1.08477e-12 7.4584e-12 3.91284e-11 -1.87653e-12 1.28685e-11 2.26678e-11 -1.08417e-12 7.44568e-12 7.73091 5.47488 0.417314 2.26613e-11 -1.08467e-12 7.45204e-12 2.90554 0.965183 0.102902 2.26683e-11 -1.08497e-12 7.45124e-12 10.2786 0.731801 0.0259123 2.26577e-11 -1.08298e-12 7.45522e-12 2.22167 -0.733487 -0.20892 2.13906e-15 -1.26958e-16 6.4605e-16 4.61191e-14 -2.39784e-15 1.51076e-14 8.49655e-13 1.78707e-13 3.02153e-13 9.57494e-12 -6.67096e-13 3.14557e-12 2.2613e-11 -1.06155e-12 7.46794e-12 3.9054e-11 -1.83836e-12 1.28995e-11 2.26074e-11 -1.06191e-12 7.47112e-12 -7.73091 5.47488 -0.417314 2.26132e-11 -1.06131e-12 7.46794e-12 -2.90554 0.965183 -0.102902 2.26051e-11 -1.06131e-12 7.46794e-12 -10.2786 0.731801 -0.0259123 2.26227e-11 -1.05873e-12 7.46158e-12 -2.22167 -0.733487 0.20892 -2.03217e-16 0.0 -3.88251e-19 -2.88817 -1.94435 0.0304157 -0.00797257 -2.07874 -0.0650923 -0.422279 4.00217 0.127119 2.03217e-16 0.0 3.88251e-19 -3.72549 -11.2507 0.48381 -0.0143126 14.7725 -0.388791 0.544948 -3.54242 0.0125001
-3.30024 82.1342 44.8537 -5.4283 -5.8777 8.8268 -3.72221 -2.35851 0.633557 -1.57252 -2.97366 -0.0823125 -2.56133 3.89612 -3.39683 5.14641 -3.25541 -6.27256 -0.0 0.0 0.0 -0.0 0.0 0.0 2.10713e-14 7.9884e-14 2.72288e-14 23.8117 -6.40871 -3.09933 -3.6585 -1.56447 5.81606 0.329214 12.7885 1.63988 3.466e-10 -7.05913e-11 -5.80134e-10 5.75516e-10 -1.08851e-10 -1.01081e-09 3.46605e-10 -7.05909e-11 -5.80144e-10 7.73091 5.47488 0.417314 3.46599e-10 -7.05914e-11 -5.80136e-10 2.90554 0.965183 0.102902 3.46606e-10 -7.05911e-11 -5.80137e-10 10.2786 0.731801 0.0259123 3.46597e-10 -7.05886e-11 -5.80134e-10 2.22167 -0.733487 -0.20892 2.10157e-14 7.98826e-14 2.69761e-14 -22.9102 -5.31065 3.81666 3.67073 -1.57161 -5.83381 -0.052381 5.1088 -0.707944 -8.64455e-11 -6.15814e-11 6.59803e-10 -1.39864e-10 -1.01595e-10 1.14125e-09 -8.64495e-11 -6.15801e-11 6.59807e-10 -7.73091 5.47488 -0.417314 -8.64454e-11 -6.15802e-11 6.59802e-10 -2.90554 0.965183 -0.102902 -8.64538e-11 -6.15803e-11 6.59803e-10 -10.2786 0.731801 -0.0259123 -8.64389e-11 -6.15796e-11 6.59795e-10 -2.22167 -0.733487 0.20892 -2.03217e-16 0.0 -3.88251e-19 -2.57605 -3.04212 6.9247 0.00577056 -1.86054 0.0528326 -0.729546 1.69228 -5.34872 2.03217e-16 0.0 3.88251e-19 -5.63979 -9.83779 -12.2337 0.00799067 14.5601 -0.15593 1.95705 -12.4685 15.9235
-3.28325 82.1343 44.8695 -5.3471 -5.8564 8.7531 -3.00067 -4.85654 1.44039 -1.95648 -6.14831 0.0531313 -4.74638 7.9833 -7.04348 9.81486 -6.58587 -12.9766 -0.0 0.0 0.0 -0.0 0.0 0.0 3.98837e-14 1.59667e-13 5.37588e-14 48.2268 -13.1356 -6.508 -7.1847 -3.16594 11.9816 -0.20191 26.2828 3.67077 6.654e-10 -1.40811e-10 -1.15191e-09 1.10358e-09 -2.17579e-10 -2.00708e-09 6.65405e-10 -1.4081e-10 -1.15192e-09 7.73091 5.47488 0.417314 6.65399e-10 -1.40811e-10 -1.15191e-09 2.90554 0.965183 0.102902 6.65407e-10 -1.4081e-10 -1.15191e-09 10.2786 0.731801 0.0259123 6.65399e-10 -1.40807e-10 -1.15191e-09 2.22167 -0.733487 -0.20892 3.97632e-14 1.59671e-13 5.35569e-14 -46.3396 -10.7486 7.96774 7.21744 -3.18652 -12.0347 0.0316797 10.444 -1.46664 -1.81352e-10 -1.1888e-10 1.29673e-09 -2.94888e-10 -1.96016e-10 2.2427e-09 -1.81354e-10 -1.18877e-10 1.29674e-09 -7.73091 5.47488 -0.417314 -1.81352e-10 -1.18878e-10 1.29673e-09 -2.90554 0.965183 -0.102902 -1.8136e-10 -1.18878e-10 1.29673e-09 -10.2786 0.731801 -0.0259123 -1.81349e-10 -1.1888e-10 1.29672e-09 -2.22167 -0.733487 0.20892 -2.03217e-16 0.0 -3.88251e-19 -1.97627 -4.11901 14.2259 0.0193822 -1.62718 0.177668 -1.53211 -0.723553 -11.1288 2.03217e-16 0.0 3.88251e-19 -6.99938 -7.95542 -25.5518 0.0336246 14.3385 0.089512 8.7955 -19.2743 34.0922
-3.27774 82.1372 44.88 -5.3121 -5.8832 8.7083 -2.26164 -7.08361 2.15039 -2.27466 -8.98592 0.170853 -6.2821 11.5225 -10.3783 13.3199 -9.29667 -19.0468 -0.0 0.0 0.0 -0.0 0.0 0.0 5.8944e-14 2.39894e-13 7.97981e-14 69.2638 -18.9946 -9.77701 -10.0365 -4.50032 17.4973 -1.713 38.222 6.11116 9.94475e-10 -2.09604e-10 -1.75532e-09 1.64829e-09 -3.22799e-10 -3.05817e-09 9.94479e-10 -2.09604e-10 -1.75532e-09 7.73091 5.47488 0.417314 9.94474e-10 -2.09605e-10 -1.75531e-09 2.90554 0.965183 0.102902 9.94482e-10 -2.09603e-10 -1.75531e-09 10.2786 0.731801 0.0259123 9.94475e-10 -2.096e-10 -1.75531e-09 2.22167 -0.733487 -0.20892 5.87691e-14 2.39902e-13 7.96362e-14 -66.5547 -15.644 11.8456 10.0661 -4.51968 -17.5512 0.233375 15.3169 -2.19334 -3.04562e-10 -1.82621e-10 1.96447e-09 -4.977e-10 -3.01108e-10 3.39794e-09 -3.04563e-10 -1.82616e-10 1.96448e-09 -7.73091 5.47488 -0.417314 -3.04563e-10 -1.82618e-10 1.96447e-09 -2.90554 0.965183 -0.102902 -3.04572e-10 -1.82618e-10 1.96447e-09 -10.2786 0.731801 -0.0259123 -3.04562e-10 -1.82621e-10 1.96446e-09 -2.22167 -0.733487 0.20892 -2.03217e-16 0.0 -3.88251e-19 -1.17928 -4.9618 20.7653 0.0305613 -1.42411 0.288602 -2.65279 -2.78856 -16.3126 2.03217e-16 0.0 3.88251e-19 -7.56724 -6.12106 -37.3512 0.0579454 14.1345 0.308452 18.426 -21.2086 51.1902
